<?xml version="1.0" encoding="utf-8"?>
<!-- Generator: Adobe Illustrator 25.0.0, SVG Export Plug-In . SVG Version: 6.00 Build 0)  -->
<svg version="1.2" baseProfile="tiny" id="Layer_1" xmlns="http://www.w3.org/2000/svg" xmlns:xlink="http://www.w3.org/1999/xlink"
	 x="0px" y="0px" viewBox="0 0 460.6 215.9" overflow="visible" xml:space="preserve">
<path fill="#050505" d="M219.3,82.8c-0.2,0-0.3,0-0.5,0c-1.9-0.2-3.8-0.2-5.8,0c-10.7,0-21.1-1.7-31.4-4.5c-8.8-2.5-17.4-5.7-25.9-9
	c-11.2-4.4-22.3-9-33.4-13.7C109.1,50,96.7,43,85.6,33.8C73,23.3,58.4,16.8,42.9,11.9C32.5,8.6,21.9,7,11.1,6C7.4,5.7,3.7,5.2,0,5.3
	c0-0.4,0-0.8,0-1.2c10.1,0.7,20.3,1.3,30.2,3.4c17,3.5,33.1,9.3,47.7,18.8c5.2,3.4,10,7.4,15,11.2c9.7,7.3,20.4,12.8,31.6,17.6
	c15.5,6.6,31,13,46.9,18.7c10.9,3.9,22,6.8,33.6,7.7c3,0.3,6.1,0.4,9.1,0.4c0.6,0,1.3,0,1.9,0.2c-0.4,0.3-0.9,0-1.3,0.2
	c1.3-0.1,2.7,0.1,4.1-0.1C219.2,82,219.8,82,219.3,82.8z"/>
<path fill="#050505" d="M224.1,104.4c-3.9,0.7-7.8,1.1-11.8,1.5c-10.6,1.2-21.2,2-31.9,1.8c-11.9-0.3-23.5-2.4-34.9-5.8
	c-13-3.9-25.4-9.1-37.9-14.4C99.4,84,91,80.7,82.8,77.2c-11.3-4.9-21.7-11.1-31.3-18.8c-14-11.3-30.1-18.1-47.3-22.6
	c-1.4-0.4-2.9-0.7-4.3-1c0-0.4,0-0.8,0-1.2c7.3,1.4,14.4,3.7,21.4,6.2c11.3,4.1,21.6,9.8,31,17.3c11.5,9.3,24.3,16.3,38,21.8
	c13.9,5.6,27.6,11.7,41.6,17c11,4.1,22.2,7.6,33.9,9.5c9.7,1.5,19.4,1.7,29.2,1.2c9-0.4,18-1.5,27-2.6c0.4-0.1,0.9,0,1.3-0.1
	C223.5,104.2,224,104,224.1,104.4z"/>
<path fill="#050505" d="M204.2,89c-8.6-0.1-17.1-1.2-25.5-3.3c-9.2-2.2-18.1-5.3-26.9-8.7c-13.5-5.3-27-10.8-40.3-16.5
	c-12.5-5.3-24-12.1-34.6-20.7c-18-14.6-38.9-22.1-61.4-26c-4.4-0.8-8.9-1.2-13.3-1.6c-0.7-0.1-1.4-0.1-2.2-0.1c0-0.4,0-0.8,0-1.2
	c8.7,0.8,17.4,1.6,25.9,3.6C40.7,18.2,55,23.3,68,31.6c3,1.9,6,4,8.8,6.3c11.8,9.7,24.9,17.3,39,23.1c15.3,6.3,30.6,12.8,46.2,18.4
	c10.7,3.8,21.6,6.9,32.9,8c3,0.3,6,0.6,9,0.6c0.7,0,1.4,0,2.1,0.2c0,0.5-0.4,0.3-0.7,0.4C204.8,88.6,204.5,88.8,204.2,89z"/>
<path fill="#050505" d="M32.9,0c3.3,0.6,6.5,1.2,9.8,1.9C57.6,5.7,72,10.8,85.2,19c4.4,2.7,8.4,5.9,12.4,9.1
	c10.4,8.3,21.9,15,34.1,20.3c16.2,7,32.5,13.7,49.1,19.6c15.6,5.6,31.7,8.3,48.3,7.7c0.6,0,1.3,0,1.9,0c0,0.8-0.5,0.4-0.9,0.4
	c-1.4,0.2-2.8-0.1-4.3-0.1c-1.4,0-2.9,0-3.7,0c2.6-0.2,5.9,0.3,9.2,0c0.2,0,0.4,0.1,0.4,0.4c-1.7,0.3-3.4,0.2-5.1,0.2
	c-2-0.2-4-0.2-6,0c-10.2,0-20.2-1.5-30.1-4.2c-11.6-3.2-22.7-7.6-33.8-12c-12-4.8-24-9.6-35.6-15.3c-9.6-4.7-18.5-10.6-26.7-17.3
	C83.8,18.8,71.6,12.7,58.5,8c-10.7-3.9-21.7-6.5-33-7.7c-0.4,0-0.9-0.2-1.3-0.3C27.1,0,30,0,32.9,0z"/>
<path fill="#050505" d="M189.5,101.5c-9,0-17.9-1.2-26.6-3.3C152.3,95.7,142,92.1,132,88c-12.8-5.2-25.6-10.4-38.4-15.8
	c-12.1-5.1-23.3-11.6-33.5-19.8c-16.4-13.3-35.5-20.7-56-24.8c-1.4-0.3-2.8-0.5-4.1-0.7c0-0.4,0-0.8,0-1.2
	c11.1,1.7,21.8,4.8,32.3,8.9c9.8,3.8,19,8.9,27.2,15.5C72.1,60.3,86.1,68,101.2,74c13.4,5.3,26.5,11.2,40,16.2
	c10.7,4,21.5,7.4,32.8,9.1c5.5,0.8,11,1.3,16.5,1.4c0.6,0,1.2,0.1,1.8,0.2c-0.3,0.3-0.8,0-1,0.1c2.7,0,5.6-0.2,8.4,0
	c0.3,0,0.9-0.3,1,0.4c-1.7,0.3-3.4,0.2-5.1,0.2C193.5,101.3,191.5,101.3,189.5,101.5z"/>
<path fill="#050505" d="M187.9,94.8c-6.5-0.4-12.8-1.7-19.1-3.3c-9.9-2.5-19.4-5.9-28.8-9.7c-13.2-5.3-26.5-10.7-39.6-16.3
	c-11.6-5-22.2-11.5-32-19.4C50.6,31.7,30,24.2,7.8,20.4c-2.6-0.4-5.2-0.9-7.8-1c0-0.4,0-0.8,0-1.2c19.3,1.9,37.5,7.4,54.6,16.6
	c5.7,3.1,10.8,7,15.9,11C80.7,54,92,60.5,104.1,65.6c16.3,6.8,32.5,13.7,49.1,19.7c10.4,3.7,20.9,6.7,31.9,8.1
	c1.6,0.2,3.2,0.4,4.8,0.6c0.3,0.4,0.3,0.7-0.3,0.7C188.9,94.8,188.4,94.4,187.9,94.8z"/>
<path fill="#050505" d="M197.3,112.8c-3,0.5-6,0.6-9.1,0.8c-11.9,0.8-23.7,0.5-35.5-1.8c-12.8-2.5-25.1-6.6-37.2-11.5
	c-14.5-6-28.9-11.9-43.2-18.2c-10.5-4.6-20.2-10.6-29.1-17.8C30.3,54.2,15.7,47.6,0,43.2c0-0.5,0-1,0-1.4c3.3,1.1,6.7,2.1,10,3.3
	c12.9,4.3,24.6,10.6,35.3,19.1c10.2,8.1,21.5,14.5,33.5,19.4c14.9,6.1,29.5,12.7,44.6,18.4c12,4.6,24.2,8.3,37,10
	c9.8,1.3,19.7,1.3,29.6,0.7c2-0.1,4.1-0.3,6.1-0.4C196.3,112.7,197.1,112.1,197.3,112.8z"/>
<path fill="#050505" d="M460.6,123.1c-3.4-0.4-6.8-0.8-10.1-1.1c-13.6-1.2-27.2-1.4-40.9-0.9c-28.5,0.8-56.2,6.4-83.7,13.4
	c-18.4,4.7-36.6,9.8-55,14.3c-27.6,6.7-55.4,12-83.5,16.1c-18.6,2.7-37.2,5.4-55.8,7.8c-5.4,0.7-10.7,1.2-16.1,1.8
	c-0.8,0.1-1.5,0.1-2.3,0.1c-0.5,0.2-0.9,0.1-1.4,0.1c-0.3,0-0.6-0.2-0.3-0.5c7.2-0.7,14.5-1.4,21.7-2.3c16.3-2.1,32.5-4.5,48.7-6.8
	c18.2-2.6,36.3-5.5,54.3-9.1c23.5-4.7,46.7-10.5,69.8-16.8c18.2-4.9,36.5-9.7,55-13.2c14.6-2.8,29.3-4.7,44.1-5.5
	c17.4-0.9,34.8-0.7,52.1,1.3c1.1,0.1,2.2,0.3,3.3,0.5C460.6,122.4,460.6,122.8,460.6,123.1z"/>
<path fill="#050505" d="M66.5,0c2.7,1.1,5.5,2.2,8.3,3.2c10.9,4.1,20.9,9.8,29.9,17.2c12,9.8,25.3,17.5,39.5,23.6
	c15.4,6.6,30.8,12.9,46.6,18.4c14.8,5.1,30.1,7.5,45.8,7c0.6,0,1.3,0,1.9,0c1.5,0.3,3-0.1,4.5,0.2c0.3,0.1,0.5,0,0.6,0.3
	c-3.6,0.4-7.3,0.4-10.9,0.5c-14.7,0.3-29-2.1-42.9-7c-20.3-7.1-40.3-15-59.7-24.5c-8.8-4.3-16.9-9.5-24.4-15.8
	C93.4,13,79.6,5.9,64.6,0.9c-0.8-0.3-1.5-0.6-2.2-0.9C63.7,0,65.1,0,66.5,0z"/>
<path fill="#050505" d="M460.6,115.6c-5.7-0.4-11.3-0.8-17-1c-8.1-0.3-16.2-0.3-24.2-0.1c-9.7,0.3-19.4,1-29,2.2
	c-14.4,1.8-28.6,4.6-42.7,7.9c-21.5,5-42.8,11.2-64.2,16.6c-23.1,5.7-46.3,10.8-69.7,14.5c-24.2,3.9-48.5,7.4-72.8,10.6
	c-5.8,0.8-11.6,1.5-17.4,1.8c-0.5,0.2-1,0.1-1.5,0.1c-0.3,0-0.7-0.1-0.4-0.6c34.3-3.5,68.4-8.7,102.3-14.4
	c29.3-4.9,58.1-12.1,86.7-19.8c17.8-4.8,35.5-9.5,53.6-13.2c16.2-3.3,32.5-5.6,49.1-6.5c15.3-0.8,30.5-0.6,45.8,0.6
	c0.5,0,1,0.1,1.5,0.2C460.6,115,460.6,115.3,460.6,115.6z"/>
<path fill="#050505" d="M460.6,108.7c-1.7-0.4-3.5-0.3-5.2-0.4c-30.3-1.4-60.2,1.1-89.8,7.7c-19,4.2-37.9,9.3-56.7,14.3
	c-32.2,8.6-64.7,15.9-97.6,20.9c-23,3.5-45.9,7-69,9.8c-6.9,0.8-13.8,1.5-20.8,1.8c-0.8,0-1.5,0-2.3,0c-0.3-0.4,0.1-0.5,0.3-0.5
	c0.3,0,0.5,0,0.7-0.2c20.8-1.1,41.4-4.3,62-7.3c17.7-2.6,35.4-5.2,53.1-8.4c27.5-5,54.7-11.7,81.7-18.9c17.7-4.8,35.5-9.5,53.4-13.3
	c13.8-2.9,27.8-5.1,41.8-6.3c13.2-1.1,26.4-1.4,39.7-0.9c2.9,0.1,5.8,0.2,8.7,0.3C460.6,107.9,460.6,108.3,460.6,108.7z"/>
<path fill="#050505" d="M180,119.7c-2.5,0.4-5.1,0.3-7.7,0.4c-17.9,0.6-35.1-2.9-52-8.7c-12.7-4.4-25-10.1-37.4-15.3
	c-6.7-2.8-13.4-5.6-20.1-8.6C52.9,83,43.6,77.2,35,70.4C24.4,62.2,12.7,56.2,0,52.1c0-0.5,0-1,0-1.4C4.6,52.3,9.3,54,13.9,56
	c7.6,3.3,14.6,7.5,21,12.6C48.4,79.3,63.5,87,79.4,93.3c11.1,4.4,21.9,9.5,33.1,13.8c12.9,5,26.1,9.2,39.9,11
	c6.6,0.9,13.1,1.2,19.7,1.1c0.9,0,1.8,0,2.8,0c1.6,0.3,3.2,0,4.9,0.2C179.9,119.5,180,119.6,180,119.7z"/>
<path fill="#050505" d="M321.7,164.1c-4.6,0.8-9.1,1.6-13.7,2.5c-16.1,3.1-32,7.3-47.9,11.5c-24.5,6.5-49.1,12.4-74.1,16.8
	c-18.8,3.3-37.7,5.9-56.6,8.3c-15.8,2-31.6,4-47.5,5.9c-13.3,1.6-26.7,2.7-40.2,2.8c-13.7,0.1-27.2-0.8-40.5-4.3
	c-0.4-0.1-0.8-0.1-1.2-0.1c0-0.5,0-1,0-1.4c7.5,2.1,15.1,3.5,22.9,4.2c10.1,0.9,20.3,1,30.4,0.5c23.9-1.2,47.6-4.8,71.3-7.7
	c19-2.4,38.1-4.9,57-8.1c25.9-4.3,51.5-10.2,76.9-17c15.6-4.2,31.2-8.3,47.1-11.5c5.2-1.1,10.4-2.2,15.7-2.8
	C321.6,163.5,322.1,163.4,321.7,164.1z"/>
<path fill="#050505" d="M460.6,101.7c-32.5-1.5-64.4,2.3-95.9,9.9c-19.8,4.7-39.3,10.2-59,15.2c-27.9,7.2-56,13.4-84.4,17.9
	c-22.5,3.5-45.1,7-67.8,9.9c-6.5,0.8-13,1.6-19.6,1.8c-0.9,0.3-1.7,0-2.6,0c-0.3,0-0.3-0.3-0.1-0.5c8-0.6,16-1.3,24-2.3
	c17.5-2.2,34.9-4.9,52.3-7.5c18.8-2.8,37.5-6,56.1-10c22.2-4.8,44.2-10.4,66.1-16.3c17.8-4.8,35.6-9.4,53.6-13
	c17.9-3.5,36-5.7,54.3-6.2c7.7-0.2,15.3-0.2,23,0.1C460.6,101.1,460.6,101.4,460.6,101.7z"/>
<path fill="#050505" d="M460.6,88.8c-6.3-0.2-12.6,0.2-18.9,0.5c-16.8,1-33.4,3.5-49.8,7c-18.6,4-36.9,8.9-55.3,13.8
	c-26.1,6.9-52.3,13.5-78.8,18.5c-20,3.8-40,6.8-60.1,9.8c-13,1.9-25.9,3.8-39,5.1c-8.1,0.8-16.2,1.3-24.3,1.3c-0.7,0-1.4-0.1-2-0.2
	c-0.1-0.7,0.4-0.4,0.7-0.4c1.3-0.1,2.6,0,4-0.1c0.4,0,0.8,0.1,1.1-0.2c19.4-0.3,38.6-3.2,57.8-6c20.7-3.1,41.5-6.1,62-10
	c26.1-5,51.9-11.4,77.6-18.2c19.2-5.1,38.4-10.3,57.8-14.4c17.3-3.7,34.7-6.2,52.4-7.1c4.9-0.2,9.8-0.5,14.7-0.4
	C460.6,88.1,460.6,88.5,460.6,88.8z"/>
<path fill="#050505" d="M90.9,0c1.5,1.1,3.3,1.7,4.9,2.5c6.5,3.3,12.5,7.4,18.1,11.9c12.6,10.2,26.5,18.2,41.4,24.6
	c15.1,6.5,30.3,12.7,45.9,17.9c13.4,4.4,27.1,6.5,41.2,6.2c0.5,0,1,0,1.6,0c1.6,0.3,3.2-0.2,4.7,0.1c0.4,0.1,0.9-0.2,1.1,0.4
	c-2.1,0.3-4.2,0.3-6.3,0.4c-17.3,0.6-34-2.4-50.2-8.4c-15-5.5-29.9-11.4-44.5-18c-13.4-6-25.6-13.7-37-22.9
	C104.5,9,96.7,4.1,88.2,0.5c-0.3-0.1-0.6-0.3-0.8-0.5C88.5,0,89.7,0,90.9,0z"/>
<path fill="#050505" d="M156,126.2c-7.7-0.1-15.3-1.1-22.8-2.7c-13.1-2.8-25.8-7.2-38.1-12.5c-9.8-4.2-19.6-8.6-29.5-12.7
	c-14-5.7-27.2-13-39.2-22.3c-7.6-5.9-15.9-10.7-24.9-14.2c-0.4-0.2-0.9-0.3-1.4-0.5c0-0.5,0-1,0-1.4c7.6,2.8,14.8,6.3,21.5,10.9
	c5,3.4,9.8,7,14.7,10.5c8.1,5.7,16.8,10.1,25.9,14c13.7,5.9,27.4,11.9,41.3,17.5c12.7,5.2,25.8,9.2,39.5,11.2
	c4.3,0.6,8.6,1,12.9,1.2c0.6,0,1.1,0.1,1.7,0.2c0.7,0.3,1.4,0.2,2.1,0c1.3,0,2.6,0,3.8,0c0.4,0.3,0.9,0,1.2,0.4
	C161.7,126.3,158.8,125.9,156,126.2z"/>
<path fill="#050505" d="M460.6,95c-5.8,0.1-11.5,0-17.3,0.2c-16.4,0.5-32.7,2.4-48.8,5.4c-18.5,3.5-36.8,8.1-54.9,13
	c-25.8,6.9-51.6,13.6-77.7,18.9c-18.2,3.7-36.5,6.7-54.8,9.4c-16.9,2.5-33.7,5.2-50.7,7.1c-4.1,0.5-8.3,1-12.4,1.1
	c-0.6,0.3-1.3,0-1.9,0.1c-0.4,0-0.6-0.2-0.3-0.6c4.5-0.4,9-0.7,13.5-1.3c32.4-3.9,64.6-8.7,96.6-14.6c25.8-4.7,51.2-11.1,76.5-17.9
	c20.9-5.6,41.8-11.3,63.1-15.5c16.4-3.2,32.9-5.4,49.6-6c6.5-0.3,13-0.3,19.5-0.4C460.6,94.4,460.6,94.7,460.6,95z"/>
<path fill="#050505" d="M165.1,132c-1,0.3-2,0.2-2.9,0.2c-3.7-0.4-7.5-0.4-10.7-0.3c2.6,0,5.8-0.1,8.9,0.2c0.2,0,0.3,0,0.4,0.2
	c-0.7,0.2-1.4,0.2-2.1,0.2c-20.4,1-40-3.1-59-10.1c-10.3-3.8-20.1-8.5-30.1-12.8c-6.5-2.8-13-5.6-19.5-8.4
	c-10.9-4.8-20.9-11-30.5-18.1C13.4,78.4,7,74.3,0,71c0-0.5,0-1,0-1.4c5.6,2.4,10.7,5.5,15.7,8.9c6.3,4.4,12.4,9.1,19,13.1
	c7.3,4.4,15.1,8,23,11.4c11.5,5,23,10.1,34.6,15c13.8,5.7,28,10.2,42.9,12.4c8.1,1.2,16.2,1.3,24.3,1.1c0.5,0,1,0,1.6,0
	c1.1,0.2,2.3,0.1,3.4,0.2C164.7,131.6,165,131.6,165.1,132z"/>
<path fill="#050505" d="M460.6,82.5c-6.4,0-12.9,0.5-19.3,1.1c-19.9,1.7-39.3,5.6-58.6,10.3c-22.8,5.6-45.5,11.9-68.3,17.6
	c-32.6,8.2-65.5,14.4-98.7,19.2c-14.5,2.1-29,4.4-43.6,6.1c-5.4,0.6-10.7,1.2-16.1,1.4c-1.2,0.3-2.3,0.1-3.5,0c-0.2,0-0.6,0-0.4-0.5
	c4-0.3,8-0.5,12-0.8c11.9-1,23.8-2.7,35.6-4.4c20.3-3,40.6-6,60.7-9.7c21.7-4,43.2-9.1,64.6-14.5c19.6-5,39.2-10.5,58.9-15.2
	c16.4-4,32.8-7.4,49.6-9.4c9.1-1.1,18.1-1.7,27.3-2.1C460.6,81.9,460.6,82.2,460.6,82.5z"/>
<path fill="#050505" d="M156,126.2c1.8-0.5,3.6-0.1,5.4-0.2c0.8,0,1.7,0,2.5,0c0-0.4-0.4-0.3-0.5-0.5c18.9-0.4,37.5-3.2,56.1-6
	c19.1-2.8,38.2-5.8,57.2-9.3c21.4-4,42.6-9.1,63.7-14.5c17-4.4,34-8.9,51-13.2c19.3-4.9,38.7-9.2,58.6-11.5
	c3.6-0.4,7.2-0.7,10.7-1.1c0,0.3,0,0.6,0,1c-4.7,0.1-9.4,0.8-14.1,1.3c-21,2.6-41.6,7.4-62.1,12.7c-20.6,5.3-41.2,10.8-61.9,16
	c-31.7,7.9-63.8,13.6-96.1,18.4c-14.6,2.2-29.1,4.4-43.7,5.9C173.9,126,164.9,126.5,156,126.2z"/>
<path fill="#050505" d="M152.1,137.7c1.3,0.6,2.6,0.5,3.9,0.5c-1.4,0.3-2.8,0.2-4.1,0.2c-2.3-0.3-4.7-0.2-6.7-0.2
	c1.6,0.1,3.5-0.2,5.3,0.3c-3.9,0.3-7.8,0.3-11.6,0c0.4-0.3,0.8-0.1,1.2-0.2c-0.8,0.1-1.6-0.1-2.4,0.2c-7.7-0.2-15.4-1.3-22.9-3
	c-15.5-3.5-30.1-9.2-44.4-15.8c-8.3-3.8-16.6-7.5-25-11.1c-11.9-5.2-23-11.7-33.4-19.4c-3.9-2.9-7.9-5.5-12-7.9c0-0.6,0-1.1,0-1.7
	c6.2,3.6,12.1,7.8,17.9,12c9,6.4,18.7,11.6,28.7,16c12.9,5.7,25.7,11.6,38.8,17c14.2,6,29,10.4,44.4,12.2c6.4,0.7,12.9,0.9,19.4,0.8
	C150.2,137.7,151.1,137.7,152.1,137.7z"/>
<path fill="#050505" d="M165.1,132c-1.4-0.1-2.8-0.1-4.1-0.5c19.3-1,38.3-3.9,57.4-6.8c17.2-2.6,34.4-5.2,51.5-8.4
	c25.4-4.8,50.4-11,75.3-17.5c15.5-4,30.9-8.2,46.4-12c17.6-4.3,35.3-7.9,53.4-9.8c5.2-0.6,10.4-0.9,15.7-1.3c0,0.3,0,0.6,0,1
	c-5.8,0.1-11.6,0.7-17.3,1.3c-23.2,2.5-45.8,7.8-68.3,13.7c-21.4,5.6-42.7,11.3-64.2,16.5c-24.5,5.9-49.1,10.7-74,14.5
	c-18.6,2.9-37.1,5.8-55.8,8C175.7,131.2,170.4,131.8,165.1,132z"/>
<path fill="#050505" d="M111.6,0c5,3.3,9.8,6.7,14.5,10.5c14.1,11.3,29.9,19.4,46.5,26.2c12.5,5.1,25.1,10.3,38,14.4
	c11.2,3.6,22.7,5.6,34.5,5.6c0.5,0,1,0.1,1.5,0.2c-0.1,0.1-0.1,0.1-0.2,0.1c-0.6,0-1.1,0-1.4,0c3.3,0,7-0.2,10.6,0
	c0.3,0,0.8-0.2,0.9,0.4c-1.6,0.3-3.2,0.2-4.9,0.2c-2.8-0.2-5.6-0.2-8.4,0c-8.3,0-16.4-1.1-24.5-3c-10.1-2.4-19.8-6-29.5-9.7
	c-12.5-4.8-24.9-9.8-36.9-15.8c-10.5-5.2-20.3-11.7-29.5-19c-4.3-3.4-8.8-6.7-13.5-9.5c-0.3-0.2-0.5-0.4-0.8-0.6
	C109.6,0,110.6,0,111.6,0z"/>
<path fill="#050505" d="M129.8,0c11.6,9.3,23.6,17.8,37.1,24.2c17.1,8.1,34.6,15,52.6,20.8c13.1,4.2,26.5,5.8,40.2,5.4
	c0.7,0,1.4,0,2,0c1.7,0.2,3.4-0.1,5.1,0.2c0.1,0.1,0.2,0.2,0.2,0.3c-1.2,0.3-2.4,0.2-3.7,0.2c-1.3-0.3-2.7,0.1-3.9-0.2
	c0.5,0.3,1.3-0.1,2,0.2c-1.7,0.3-3.3,0.2-5,0.2c-16.2,0.4-31.7-2.7-46.9-8.2c-13.1-4.8-26-9.8-38.7-15.5
	c-13.9-6.2-26.7-14.1-38.6-23.6c-1.7-1.4-3.5-2.7-5.2-4C128,0,128.9,0,129.8,0z"/>
<path fill="#050505" d="M460.6,65c-4.6,0.6-9.1,1.1-13.7,1.8c-19.2,2.8-38.1,7.4-56.8,12.2c-24.7,6.4-49.4,13-74.2,18.9
	c-23.7,5.6-47.7,9.9-71.9,13.6c-16,2.5-32.1,5-48.2,6.8c-4.2,0.5-8.3,1-12.5,1.1c-0.9,0.3-1.7,0-2.6-0.1c-0.3,0-0.4-0.1-0.3-0.4
	c27.5-2,54.7-6.8,82-11.1c28.2-4.4,55.9-10.9,83.6-17.9c23.3-6,46.5-12.5,69.9-17.8c14.8-3.4,29.7-6.2,44.7-7.8
	C460.6,64.5,460.6,64.8,460.6,65z"/>
<path fill="#050505" d="M141.8,149.7c0.6,0.6,1.5,0.4,2.2,0.5c-3.5,0.5-6.9,0.5-10.4,0.7c-25.3,1.1-49.1-4.9-71.9-15.4
	c-14-6.5-28.1-12.7-41.9-19.7c-6.5-3.3-12.6-7.2-18.5-11.3c-0.4-0.3-0.9-0.6-1.3-0.8c0-0.6,0-1.1,0-1.7c3.4,2.3,6.8,4.6,10.3,6.8
	c7.9,5.1,16.4,9.1,25,13c10.6,4.9,21.1,10,31.8,14.6c15.1,6.6,30.9,11.2,47.4,12.9c8.5,0.9,17,0.8,25.5,0.4
	C140.6,149.7,141.2,149.7,141.8,149.7z"/>
<path fill="#050505" d="M187.9,94.8c0.7,0,1.3-0.6,1.9-0.7c4.4,0.2,8.7,0.5,13.1,0.4c13.9-0.2,27.7-1.9,41.5-3.8
	c24.9-3.6,49.7-7.3,74.4-12.2c13.4-2.6,26.7-5.7,39.9-9c26.4-6.5,52.6-13.7,79-20.1c7-1.7,14.1-3.3,21.2-4.8
	c0.6-0.1,1.2-0.3,1.7-0.4c0,0.2,0,0.5,0,0.7c-6.7,1.5-13.4,2.9-20,4.4c-22.7,5.4-45.2,11.4-67.8,17.3c-33.8,8.8-68,15.9-102.6,21
	c-15.3,2.3-30.7,4.7-46.1,6.4c-11.3,1.2-22.7,1.8-34.1,1.1C189.3,94.9,188.6,94.8,187.9,94.8z"/>
<path fill="#050505" d="M138.2,144c-0.3,0.6-0.9,0.4-1.4,0.5c-1.5,0.1-3-0.2-4.4,0.3c-7.9,0-15.7-1-23.4-2.5
	c-12.8-2.6-25.1-6.7-37-11.9c-12.4-5.5-24.6-11.2-36.9-16.7c-10.7-4.8-20.7-11-30.2-17.8c-1.6-1.1-3.2-2.2-4.9-3.3
	c0-0.6,0-1.1,0-1.7c2.6,1.5,5.1,3.3,7.5,5.1c10.1,7.3,20.9,13.4,32.3,18.4c12.2,5.4,24.2,11.1,36.4,16.3c14,6,28.5,10.4,43.7,12.3
	c3.6,0.5,7.1,0.8,10.7,0.9c0.5,0,1,0.1,1.5,0.2c0.9,0.3,1.9,0.2,2.8,0C136.1,144,137.2,144,138.2,144z"/>
<path fill="#050505" d="M200.6,101.3c-3.8-0.3-7.7-0.3-11.5-0.5c1,0,2.1,0,3.1,0c18-0.1,35.8-2.6,53.5-5.2c19.5-2.9,39-5.9,58.3-9.5
	c20.2-3.8,40.2-8.6,60.1-13.6c22.9-5.8,45.7-12,68.7-17.5c9.2-2.2,18.5-4.2,27.8-5.9c0,0.2,0,0.5,0,0.7c-25,4.5-49.6,11.3-74.2,17.6
	c-20.6,5.3-41.1,10.7-61.8,15.2c-23.3,5.1-46.8,8.9-70.4,12.5c-13.6,2.1-27.1,4.1-40.8,5.4C209.3,100.8,205,101.3,200.6,101.3z"/>
<path fill="#050505" d="M197.3,112.8c-0.5-0.1-0.9-0.2-1.3-0.5c5.9-0.7,11.8-1.3,17.6-2c19-2.5,38-5.5,56.9-8.6
	c29-4.7,57.6-11.3,86-18.7c17.7-4.6,35.4-9.2,53.1-13.7c16.4-4.2,32.9-7.8,49.7-10.1c0.4-0.1,0.9-0.1,1.3-0.1c0,0.2,0,0.5,0,0.7
	c-18.3,2.4-36.3,6.4-54.2,10.9c-23.8,6-47.6,12.4-71.4,18.4c-28.4,7.1-57.1,12.4-86,16.8c-15.6,2.4-31.3,4.9-47,6.6
	C200.5,112.6,198.9,112.7,197.3,112.8z"/>
<path fill="#050505" d="M307.3,171.8c-6.1,1.2-12.2,2.4-18.2,3.7c-16.2,3.6-32.1,7.9-48.1,12.1c-27.3,7.1-54.8,12.6-82.7,16.8
	c-19.6,2.9-39.3,5.2-59,7.7c-10,1.2-20,2.4-30,3.6c-0.5,0.1-0.9,0.2-1.4,0.3c-3,0-5.9,0-8.9,0c2.7-0.3,5.4-0.6,8.1-0.8
	c15.2-1.5,30.3-3.5,45.5-5.4c17.1-2.1,34.2-4.3,51.2-6.8c30.1-4.6,59.8-11.1,89.2-19c16.1-4.3,32.3-8.5,48.7-11.7
	c1.6-0.3,3.2-0.6,4.8-0.9C307,171.2,307.5,170.9,307.3,171.8z"/>
<path fill="#050505" d="M204.2,89c0.2-1.1,1.1-0.5,1.7-0.7c21.7,0.1,43.1-3.3,64.5-6.5C289,79,307.5,76,326,72.4
	c21.2-4.2,42.2-9.5,63.1-14.9c19.2-4.9,38.3-10,57.5-14.6c4.7-1.1,9.3-2.2,14-3.3c0,0.2,0,0.5,0,0.7c-21.7,4.7-43.1,10.5-64.6,16
	c-17.9,4.6-35.7,9.2-53.7,13.2c-19.7,4.4-39.6,7.9-59.5,11c-16.9,2.6-33.9,5.3-50.9,7.1c-5,0.5-9.9,1.1-14.9,1.1
	c-1.7,0.3-3.3,0-5-0.1c-1.6,0-3.2,0-4.4-0.1c0.9,0,2.1,0,3.4,0c0.2,0,0.6-0.2,0.5,0.4C209,89.2,206.6,89.1,204.2,89z"/>
<path fill="#050505" d="M130.3,156.7c-3.8,0.4-7.7,0.4-11.5,0.4c-10-0.1-19.9-1.1-29.7-3.2c-12.8-2.8-25.1-7.2-37-12.7
	c-11.5-5.4-23-11-34.5-16.5c-6.1-2.9-11.9-6.3-17.6-10c0-0.6,0-1.1,0-1.7c8.2,5.4,16.9,9.9,25.7,14.1c10.5,4.9,20.9,10.1,31.6,14.9
	c15.1,6.8,30.9,11.6,47.5,13.4c6.4,0.7,12.9,0.9,19.4,0.8c0.4,0,0.9,0,1.3,0c1.3,0.1,2.6,0,3.9,0.1
	C129.7,156.3,130.2,156.1,130.3,156.7z"/>
<path fill="#050505" d="M183.8,0c2.8,2,5.8,3.6,8.9,5.2c12.4,6.5,25.4,11.6,38.6,16.4c9.7,3.5,19.4,6.6,29.6,8.2
	c9.1,1.4,18.2,1.6,27.4,1.2c10.2-0.4,20.4-1.6,30.5-2.9c0.4,0,0.7,0,1.1-0.1c0.3,0.4,0.9,0,1.2,0.5c-3.8,0.7-7.7,1.1-11.5,1.5
	c-11.1,1.3-22.2,2.2-33.4,2.1c-11.6-0.1-22.9-1.9-34-5.4c-16.3-5.2-32.2-11.4-47.6-18.9c-4.2-2.1-8.3-4.4-12.3-6.9
	c-0.5-0.3-0.9-0.6-1.4-1C181.9,0,182.8,0,183.8,0z"/>
<path fill="#050505" d="M147.3,0c7.5,5.9,15.4,11.1,23.8,15.6C183,22,195.5,27,208,31.8c9.3,3.6,18.7,7,28.5,9.3
	c7.6,1.8,15.3,2.7,23,2.9c0.6,0,1.2,0.1,1.8,0.2c-0.2,0.3-0.5,0.1-0.9,0.2c2.8-0.1,5.5,0.1,8.2-0.1c1.1-0.1,2.1,0.2,3.2,0.1
	c0.1,0,0.6,0,0.5,0.4c-1.4,0.3-2.8,0.2-4.1,0.2c-2.1-0.4-4.2,0.1-6.3,0c-1.4-0.1-2.9-0.3-4.3,0c-8.2-0.2-16.2-1.3-24.2-3.3
	c-11.3-2.8-22.1-7-32.9-11.2c-9.3-3.7-18.6-7.5-27.6-12.1C163,13.1,153.5,7,144.7,0C145.5,0,146.4,0,147.3,0z"/>
<path fill="#050505" d="M219.3,82.8c-0.5-0.5-1.1-0.5-1.7-0.5c-1.5,0-3,0-4.5,0c-0.1,0-0.1,0-0.2-0.2c1,0,2.1,0,3.1,0
	c18.6-0.2,36.9-2.8,55.2-5.5c22.7-3.4,45.4-6.9,67.9-11.5c20.1-4.1,39.9-9.2,59.7-14.3c20-5.1,39.9-10.4,60-15.1
	c0.6-0.1,1.3-0.2,1.9-0.4c0,0.2,0,0.3,0,0.5c-4,1-8.1,2-12.1,3c-20.2,4.9-40.3,10.3-60.4,15.4c-20.5,5.2-41,10.2-61.7,14.1
	c-26.1,4.9-52.3,8.9-78.5,12.3c-8.9,1.2-17.9,2-26.9,2.3C220.4,82.8,219.8,82.8,219.3,82.8z"/>
<path fill="#050505" d="M307.3,171.8c-0.2-0.2-0.5-0.3-0.7-0.5c5.4-1.1,10.8-1.9,16.2-2.6c10.3-1.4,20.6-2.2,30.9-2.5
	c16.4-0.5,32.8,0.1,49,2.2c12.2,1.6,24,4.7,35.7,8.3c7.4,2.2,14.8,4.4,22.2,6.6c0,0.4,0,0.8,0,1.2c-7.3-1.9-14.5-4.2-21.8-6.4
	c-10-3-20-5.8-30.2-7.6c-9.3-1.7-18.7-2.6-28.1-3c-7.8-0.4-15.6-0.6-23.4-0.4c-16.2,0.3-32.2,1.8-48.2,4.5
	C308.4,171.7,307.9,171.7,307.3,171.8z"/>
<path fill="#050505" d="M231.8,76.3c-3.7-0.1-7.5-0.4-11.3-0.5c0.4,0,0.8,0,1.1,0c2.7,0,5.3,0,8,0c0.4,0,0.9-0.1,1.3-0.2
	c14.4-0.6,28.7-2.5,42.9-4.6c21.3-3.1,42.6-6.4,63.8-10.4c21.5-4.1,42.8-9.4,64-14.8c19-4.9,38-9.9,57.1-14.5
	c0.6-0.1,1.3-0.2,1.9-0.3c0,0.2,0,0.3,0,0.5c-30,7.3-59.8,15.4-89.9,22.7c-23.5,5.7-47.3,10.1-71.2,13.8c-13.2,2-26.5,4-39.8,5.7
	c-8.7,1.1-17.4,2.1-26.1,2.6C233,76.3,232.4,76.3,231.8,76.3z"/>
<path fill="#050505" d="M224.1,104.4c-0.2-0.2-0.5-0.3-0.7-0.5c15-2.3,30-4.5,45-6.8c32.9-5.1,65.4-12.5,97.6-20.8
	c21.4-5.6,42.7-11.4,64.3-16.3c9.6-2.2,19.2-4.2,28.9-5.8c0.5-0.1,1-0.1,1.4-0.1c0,0.2,0,0.5,0,0.7c-4.2,0.4-8.3,1.3-12.4,2.1
	c-19,3.6-37.7,8.5-56.5,13.4c-25.3,6.6-50.6,13.3-76.2,18.9c-19.3,4.2-38.8,7.5-58.3,10.5c-10.6,1.6-21.3,3.2-31.9,4.8
	C224.9,104.4,224.5,104.4,224.1,104.4z"/>
<path fill="#050505" d="M120.2,162.2c0.1,0.1,0.6,0.2,0.2,0.4c-0.3,0.2-0.8,0.2-1.1,0.3h-0.1h-0.1c-1.4-0.5-2.9-0.2-4.3-0.4
	c-1.1-0.1-2.3,0-3,0c1.8-0.1,4.1,0.1,6.3,0.1c0.4,0,0.7,0,1,0.2c-2.8,0.4-5.7,0.2-8.5,0.2c-23,0.2-44.6-5.4-65.3-15.1
	c-14.2-6.7-28.3-13.5-42.2-21c-1-0.5-1.9-1.3-3.1-1.6c0-0.6,0-1.1,0-1.7c3.2,1.8,6.4,3.6,9.7,5.2c14.4,7.1,28.7,14.7,43.5,21
	c15.1,6.4,30.9,10.6,47.4,11.9c6,0.5,12.1,0.4,18.1,0.3C119.2,162.2,119.7,162.2,120.2,162.2z"/>
<path fill="#050505" d="M165.3,0c0.3,0.5,0.9,0.8,1.4,1.1c9.3,6.5,19.2,11.8,29.6,16.2c13.6,5.8,27.3,11.3,41.4,15.5
	c8.9,2.6,17.9,4.2,27.1,4.6c0.4,0,0.9,0.1,1.3,0.2c0.9,0.3,1.7,0.2,2.6,0c2.2,0,4.5,0,6.7,0c1.9,0.3,3.9-0.1,5.8,0.1
	c0.3,0,0.6,0,0.7,0.4c-1.1,0.3-2.1,0.2-3.2,0.2c-1.1-0.3-2.2,0-3.3-0.1c0.5,0.1,1-0.2,1.5,0.2c-4,0.3-7.9,0.3-11.9,0
	c0.2-0.3,0.4-0.1,0.6-0.2c-0.2,0-0.4,0-0.6,0c-0.5,0-1.1-0.1-1.6,0.1c-7.7-0.2-15.3-1.5-22.8-3.4c-13-3.4-25.4-8.3-37.8-13.4
	c-11.1-4.5-22-9.5-32.1-16C167.8,3.8,165,2,162.4,0C163.4,0,164.3,0,165.3,0z"/>
<path fill="#050505" d="M120.5,168.5c-2.7,0.5-5.4,0.5-8.1,0.6c-16.4,0.9-32.6-0.3-48.5-4.7c-12.6-3.5-24.6-8.5-36.2-14.5
	C18.5,145,9.1,140.5,0,135.6c0-0.5,0-1,0-1.4c5.7,2.9,11.4,5.9,17.2,8.8c10.9,5.5,21.6,11.2,32.9,15.5c13,4.9,26.3,8.3,40.1,9.4
	c8.5,0.7,16.9,0.7,25.4,0.2c1-0.1,1.9-0.1,2.9-0.1c0.4,0.2,0.8,0.2,1.2,0.2C120.1,168.1,120.4,168,120.5,168.5z"/>
<path fill="#050505" d="M249.8,0c2.4,1.2,4.9,2,7.4,2.8c10.9,3.9,21.9,7.1,33.4,8.3c7.9,0.8,15.9,0.9,23.8,0.4
	c23.3-1.3,46.3-5,69.3-8.4c5.8-0.9,11.6-1.8,17.4-2.8c0.7-0.1,1.3-0.3,2-0.4c1.4,0,2.7,0,4.1,0c-3.3,0.9-6.7,1.3-10.1,1.9
	c-19.9,3.3-40,6.2-60,8.6c-12.8,1.5-25.6,2.6-38.5,2.3c-11.5-0.3-22.6-2.4-33.5-5.9c-6.1-1.9-12-4.1-18-6.3
	c-0.4-0.1-0.7-0.3-1.1-0.5C247.2,0,248.5,0,249.8,0z"/>
<path fill="#050505" d="M321.7,164.1c-0.2-0.2-0.4-0.3-0.5-0.5c4.1-0.9,8.3-1.4,12.4-1.9c10.2-1.3,20.5-2,30.8-2.3
	c18.2-0.4,36.3,0.3,54.3,3.5c11.6,2,22.7,5.6,33.9,9.2c2.7,0.9,5.3,1.7,8,2.6c0,0.4,0,0.8,0,1.2c-2.8-0.6-5.4-1.6-8.1-2.5
	c-11-3.5-22.1-7-33.5-9.2c-8.8-1.7-17.7-2.6-26.6-3.2c-7.9-0.5-15.9-0.7-23.8-0.7c-14.8,0.1-29.5,1.2-44.1,3.4
	C323.6,163.9,322.6,164,321.7,164.1z"/>
<path fill="#050505" d="M243.6,69.8c-1.7-0.1-3.4-0.1-5.1-0.5c18.5-0.8,36.8-3.6,55.1-6.3c17.3-2.6,34.5-5.3,51.7-8.6
	c19-3.7,37.8-8.2,56.6-12.9c18.9-4.8,37.8-9.6,56.7-14.4c0.7-0.2,1.3-0.3,2-0.4c0,0.2,0,0.3,0,0.5c-27.9,6.9-55.7,14.4-83.7,21.1
	c-24.5,5.9-49.3,10.3-74.2,14.1c-16,2.4-31.9,4.9-48,6.6C251.1,69.3,247.3,69.8,243.6,69.8z"/>
<path fill="#050505" d="M320.5,158.6c5-1.1,10-1.9,15-2.6c13.7-2,27.4-3,41.2-3.2c15.3-0.2,30.6,0.4,45.8,2.7
	c12,1.8,23.5,5.2,34.9,9.1c1.1,0.4,2.2,0.8,3.3,1c0,0.5,0,1,0,1.4c-4.8-1.6-9.7-3.1-14.5-4.7c-14.2-4.5-28.8-6.9-43.7-7.9
	c-11-0.7-22.1-0.9-33.1-0.6c-15.8,0.4-31.5,2.2-47.1,5c-0.4,0.1-0.9,0.1-1.3,0.2C320.9,158.8,320.5,158.9,320.5,158.6z"/>
<path fill="#050505" d="M256.5,57.4c-4.4-0.2-8.8-0.4-13.2-0.5c1.1,0,2.2,0,3.3,0c19-0.1,37.7-2.8,56.4-5.5
	c20.6-3,41.1-6.2,61.5-10.2c20.9-4.1,41.6-9.3,62.2-14.5c11.3-2.9,22.5-5.7,33.8-8.6c0,0.2,0,0.5,0,0.7c-2.8,0.5-5.6,1.3-8.4,2
	c-21.9,5.5-43.8,11.3-65.9,16.4c-21.3,4.9-42.8,8.8-64.4,12.1c-16.8,2.6-33.6,5.2-50.5,7C266.5,56.8,261.5,57.3,256.5,57.4z"/>
<path fill="#050505" d="M250.5,62.9c21.8-1.4,43.3-5,64.8-8.2c35.1-5.2,69.7-12.9,104.1-21.9c13.2-3.4,26.4-6.7,39.6-10.1
	c0.5-0.1,1.1-0.2,1.6-0.4c0,0.2,0,0.3,0,0.5c-6.7,1.7-13.3,3.4-20,5.1c-19.6,5-39.2,10.1-59,14.8c-23.6,5.5-47.4,9.8-71.4,13.5
	c-16.1,2.4-32.2,4.9-48.3,6.6c-2.7,0.3-5.4,0.6-8.1,0.6c-1,0.3-2.1,0.1-3.1-0.1C250.5,63.3,250.3,63.2,250.5,62.9z"/>
<path fill="#050505" d="M110.6,174.7c-3.9,0.5-7.8,0.6-11.7,0.7c-12.3,0.3-24.6-0.5-36.7-3.1c-12.3-2.6-23.9-7-35.2-12.4
	c-8.7-4.1-17.1-8.9-25.6-13.3c-0.5-0.2-0.9-0.5-1.4-0.7c0-0.6,0-1.1,0-1.7c5.9,3.1,11.8,6.2,17.7,9.4c10.4,5.6,21.1,10.4,32.4,14.1
	c10.3,3.4,20.8,5.4,31.6,6.3c8.1,0.7,16.1,0.6,24.2,0.2c0.6,0,1.3,0,1.9,0c0.6,0.3,1.3,0.1,2,0.1
	C110.1,174.4,110.5,174.2,110.6,174.7z"/>
<path fill="#050505" d="M272.4,44.7c-4.5-0.4-9-0.2-13.4-0.5c0.8,0,1.6,0,2.4,0c20,0,39.7-2.9,59.4-5.7c21-3,41.9-6.3,62.7-10.5
	c21-4.2,41.7-9.4,62.5-14.7c4.9-1.2,9.9-2.5,14.8-3.7c0,0.2,0,0.3,0,0.5c-4.4,1.1-8.7,2.3-13.1,3.4c-21.3,5.4-42.6,10.8-64.2,15.2
	c-20.6,4.2-41.3,7.4-62.1,10.5c-12.1,1.8-24.3,3.5-36.5,4.7C280.7,44.2,276.5,44.6,272.4,44.7z"/>
<path fill="#050505" d="M460.6,157.9c-10.6-3.7-21.3-6.7-32.4-8.3c-9.1-1.3-18.3-2-27.5-2.3c-6.6-0.2-13.2-0.3-19.8-0.2
	c-16.6,0.4-33.1,2-49.5,5c-0.5,0.1-1.1,0.2-1.7,0.2c-0.1-0.2-0.5-0.1-0.5-0.5c5.6-1.2,11.2-2,16.9-2.8c17.3-2.4,34.8-3.3,52.2-2.8
	c14.5,0.4,28.9,1.4,43.1,4.7c6,1.4,12,3.2,17.8,5.2c0.4,0.1,0.8,0.3,1.3,0.4C460.6,156.9,460.6,157.4,460.6,157.9z"/>
<path fill="#050505" d="M267.5,50.1c7.7-0.6,15.4-1.3,23-2.3c14.8-1.9,29.5-4.2,44.3-6.4c34.1-5.1,67.6-12.7,101-21.4
	c7.7-2,15.4-3.9,23.1-5.9c0.6-0.1,1.2-0.2,1.8-0.3c0,0.2,0,0.3,0,0.5c-19.8,5-39.6,10.1-59.4,14.9c-26.1,6.2-52.5,10.9-79,14.9
	c-13.9,2.1-27.7,4.1-41.7,5.6c-3.4,0.4-6.8,0.8-10.3,0.9c-0.8,0.3-1.6,0-2.4,0C267.5,50.6,267.4,50.4,267.5,50.1z"/>
<path fill="#050505" d="M282,38.2c-2.2-0.1-4.4-0.2-6.5-0.5c21.1-0.7,41.9-4,62.8-7c21.3-3.1,42.6-6.7,63.7-11.2
	c19.7-4.3,39.2-9.2,58.8-14.2c0,0.2,0,0.5,0,0.7c-4.7,1.2-9.5,2.3-14.2,3.5c-18.6,4.6-37.2,9.2-55.9,13
	c-23.3,4.7-46.8,8.2-70.4,11.6c-10.5,1.5-21.1,2.8-31.7,3.7C286.3,38,284.1,38.1,282,38.2z"/>
<path fill="#050505" d="M106.3,180.4c-2.2,0.4-4.5,0.4-6.8,0.6c-15.4,1.1-30.7,0.6-45.8-2.5c-14.7-3.1-28.4-8.7-41.6-15.6
	C8.5,161,4.9,159,1.2,157c-0.4-0.2-0.8-0.4-1.2-0.5c0-0.6,0-1.1,0-1.7c5.8,3.1,11.6,6.4,17.5,9.3c13.3,6.6,27.2,11.8,41.9,14.4
	c11.1,1.9,22.3,2.6,33.6,2.1c3.9-0.2,7.7-0.4,11.6-0.5c0.3,0.3,0.7,0.2,1,0.2C105.9,180.1,106.2,180,106.3,180.4z"/>
<path fill="#050505" d="M203.4,0c4,2.2,8.1,4.1,12.3,5.9c11,4.8,22.1,9,33.5,12.8c13.9,4.6,28.1,6.6,42.7,6.1c1.2,0,2.4,0,3.6,0
	c1.3,0.3,2.7-0.1,4,0.2c0.3,0,0.5,0,0.6,0.3c-1.1,0.3-2.3,0.2-3.4,0.2c-0.4-0.2-0.7-0.1-1.1-0.1c-0.1,0-0.2,0-0.3,0
	c0.1,0,0.3,0,0.3,0.2c-1.9,0.3-3.9,0.2-5.8,0.2c-2-0.2-4-0.2-6,0c-9.8,0-19.4-1.3-28.8-4C236.8,16.5,219.2,9.5,202.2,1
	c-0.6-0.3-1.2-0.5-1.6-1C201.5,0,202.5,0,203.4,0z"/>
<path fill="#050505" d="M300.2,25.2c-1.5,0-3.1-0.1-4.6-0.5c23.6-1.3,47-5,70.3-8.5c26.9-4,53.5-9.3,79.8-15.8
	c0.4-0.1,0.8-0.3,1.3-0.4c0.9,0,1.8,0,2.6,0c-3.9,1.2-7.9,2-11.9,2.9c-16.4,3.9-32.8,7.4-49.4,10.3c-21.7,3.8-43.4,6.9-65.2,9.7
	c-6.7,0.9-13.5,1.6-20.3,2.1C301.9,25.2,301.1,25.2,300.2,25.2z"/>
<path fill="#050505" d="M460.6,148.5c-2.4-0.4-4.6-1.3-6.9-1.9c-10.6-2.9-21.5-4.4-32.5-5.2c-11.5-0.9-23-1-34.5-0.7
	c-9.8,0.2-19.5,1-29.1,2.2c-0.5,0.1-1,0.1-1.6,0.1c-0.3-0.4-1,0.2-1.2-0.5c3.7-0.7,7.4-1,11-1.4c14.8-1.6,29.7-1.8,44.5-1.4
	c13.1,0.4,26.1,1.5,38.9,4.4c3.9,0.9,7.7,1.9,11.4,3.2C460.6,147.7,460.6,148.1,460.6,148.5z"/>
<path fill="#050505" d="M68.1,187.4c-8.6-0.2-17.1-1.3-25.5-3.2c-14.2-3.3-27.5-8.8-40.3-15.7c-0.8-0.4-1.6-0.8-2.3-1.2
	c0-0.6,0-1.1,0-1.7c6.8,3.8,13.8,7.2,21,10.3c15.1,6.4,30.9,10,47.3,10.7c5.6,0.2,11.1,0.1,16.6,0.2c1.1,0.3,2.3,0,3.4,0.2
	c0.3,0,0.6,0,0.7,0.3c-1.4,0.3-2.9,0.2-4.4,0.2c-2.5-0.3-5-0.3-7.5-0.2c2,0,4.1,0,6.1,0.1c0.3,0,0.6-0.1,0.9,0.1
	c-2.8,0.4-5.6,0.2-8.3,0.2c-2.1,0-4.1,0.2-6.2-0.2C69.2,187.1,68.7,187.4,68.1,187.4z"/>
<path fill="#050505" d="M321,28.6c-0.5-0.1-0.9-0.2-1.2-0.5c6.7-0.9,13.5-1.9,20.2-2.8c20.7-3,41.3-6.2,61.7-10.4
	c19.5-4,38.8-8.8,58.1-13.6c0.3-0.1,0.5-0.2,0.8-0.3c0,0.2,0,0.5,0,0.7c-9.5,2.3-19.1,4.7-28.6,7c-28,6.9-56.3,12.1-84.8,16.2
	c-8.3,1.2-16.5,2.4-24.8,3.5C321.9,28.5,321.5,28.5,321,28.6z"/>
<path fill="#050505" d="M225.5,0c2.9,1.5,5.9,2.6,8.9,3.8c10.8,4.3,21.6,8.4,32.9,11.2c8.1,2,16.3,3.1,24.7,3.3
	c0.6,0,1.2,0.1,1.8,0.2c1.6,0.3,3.2,0.1,4.8,0.2h0.1c0,0,0-0.1-0.1-0.2c1.9-0.3,3.9-0.2,5.8-0.2c1.2,0.3,2.4-0.1,3.5,0.1
	c0.3,0.1,0.5,0.1,0.6,0.4c-1,0.3-2.1,0.2-3.2,0.2c-0.2-0.2-0.5-0.1-0.8-0.1c-0.1,0-0.2,0-0.3,0c0.1,0,0.2,0.1,0.2,0.2
	c-1.7,0.3-3.4,0.2-5.1,0.2c-2.8-0.2-5.6-0.2-8.4,0c-8.3,0-16.6-1.1-24.7-3.2c-15.1-3.8-29.5-9.5-43.8-15.7c-0.2-0.1-0.4-0.2-0.6-0.3
	C223.1,0,224.3,0,225.5,0z"/>
<path fill="#050505" d="M460.6,139.6c-12.7-3.4-25.8-4.7-38.9-5.3c-13-0.6-26-0.5-38.9,0.4c-4.7,0.3-9.3,0.8-14,1.3
	c-0.5,0-1,0.1-1.6,0.1c-0.4-0.2-1,0.1-1.3-0.5c3.9-0.6,7.8-1,11.8-1.4c12.2-1,24.4-1.5,36.6-1.2c13.2,0.3,26.3,1.1,39.3,3.8
	c2.3,0.5,4.6,0.9,6.9,1.7C460.6,138.8,460.6,139.2,460.6,139.6z"/>
<path fill="#050505" d="M276.9,0c4.7,1.6,9.6,2.7,14.5,3.6c10.4,1.9,21,2.1,31.5,1.5c15.2-0.8,30.2-2.8,45.3-4.8
	c0.4-0.1,0.9-0.2,1.3-0.3c1.8,0,3.7,0,5.5,0c-3.1,0.7-6.2,1-9.4,1.4c-13.5,1.8-27,3.6-40.6,4.5c-17.3,1.2-34.4,0.1-51-5.3
	c-0.5-0.2-1-0.4-1.4-0.6C274,0,275.4,0,276.9,0z"/>
<path fill="#050505" d="M308.6,18.7c-1.4-0.1-2.8-0.2-4.1-0.5c39.3-3,78.1-9.2,116.8-16.8c2.1-0.4,4.3-0.7,6.3-1.4c1,0,2.1,0,3.1,0
	c-3.8,1.1-7.8,1.8-11.7,2.6c-25.9,5.4-52,9.2-78.1,12.8c-9.7,1.3-19.5,2.5-29.3,3.3C310.6,18.7,309.6,18.7,308.6,18.7z"/>
<path fill="#050505" d="M78,198.9c-2.6,0.4-5.2,0.4-7.9,0.6c-12.6,0.6-25.2,0.4-37.8-1.5c-11.2-1.7-22-5.1-32.4-9.7c0-0.5,0-1,0-1.4
	c4.1,1.6,8.1,3.3,12.3,4.8c9.9,3.5,20,5.5,30.4,6.5c10.1,0.9,20.3,1,30.4,0.3c0.9-0.1,1.8,0,2.8-0.1c0.4,0.4,0.9,0.1,1.4,0.2
	C77.5,198.6,77.9,198.4,78,198.9z"/>
<path fill="#050505" d="M77.1,193.4c-1.9,0.3-3.9,0.2-5.8,0.2c-2.6-0.2-5.1-0.2-7.7,0c-13.2-0.1-26.2-1.7-38.8-5.6
	C16.2,185.4,8,182,0,178c0-0.6,0-1.1,0-1.7c4.8,2.6,9.9,4.7,14.9,6.8c13.6,5.5,27.8,8.6,42.5,9.4c2.4,0.1,4.8,0,7.2,0.4
	c0.2,0.3,0.5,0.1,0.7,0.1c3.6,0.1,7.1-0.1,10.7,0C76.4,193,76.9,192.8,77.1,193.4z"/>
<path fill="#050505" d="M460.6,131.2c-4.4-1.1-8.9-1.7-13.3-2.2c-13.3-1.5-26.7-1.8-40-1.7c-0.5,0-1,0-1.6,0c-0.9-0.2-1.9-0.2-2.8,0
	c-2.8,0.3-5.7,0.3-8.5,0.4c-1.1-0.3-2.2,0.2-3.3-0.1c-0.3-0.1-0.5-0.1-0.6-0.4c0.7-0.2,1.5-0.2,2.2-0.2c0.4,0.2,0.9,0.1,1.3,0.1h0.1
	V127c1.2-0.3,2.4-0.2,3.6-0.2c0.1,0.1,0.2,0.1,0.3,0.1c0.1,0,0.1,0.1,0.2,0c0,0,0,0,0-0.1c0.4-0.1,0.8-0.2,1.2-0.2
	c17.8-0.7,35.6-0.4,53.3,1.9c2.6,0.3,5.3,0.8,7.9,1.2C460.6,130.3,460.6,130.8,460.6,131.2z"/>
<path fill="#050505" d="M0,196.7c11.4,4.4,23.3,6.8,35.4,7.7c7.9,0.6,15.7,0.5,23.6,0.4c1.1,0.3,2.2,0.1,3.3,0.1
	c0.3,0,0.5,0.1,0.6,0.4c-1.4,0.3-2.8,0.2-4.1,0.2c-2.5-0.3-5-0.3-7.5-0.4c-0.4,0-0.9,0-1.3,0c2.2-0.1,4.4,0.2,6.5,0.1
	c0.4,0,0.8,0,1.1,0.3c-1.3,0.3-2.6,0.2-3.9,0.2c-12.8,0.2-25.5-0.4-38.1-3.1c-5.3-1.2-10.5-2.7-15.6-4.6C0,197.7,0,197.2,0,196.7z"
	/>
<path fill="#050505" d="M220.7,76.5c2-0.4,4-0.4,6,0C224.7,76.5,222.7,76.5,220.7,76.5z"/>
<path fill="#050505" d="M213,82.8c1.9-0.4,3.8-0.4,5.8,0C216.9,82.8,215,82.8,213,82.8z"/>
<path fill="#050505" d="M211.4,89c-1.9-0.5-3.8,0-5.7-0.4c3.8-0.1,7.5-0.2,11.3,0.2C215.1,89.1,213.2,89,211.4,89z"/>
<path fill="#050505" d="M189.5,101.5c2-0.4,4-0.4,6,0C193.5,101.5,191.5,101.5,189.5,101.5z"/>
<path fill="#050505" d="M180.4,119c0.9,0.4,1.9,0.5,2.9,0.5c-1.1,0.3-2.2,0.2-3.4,0.2h-0.1c-1.2-0.3-2.4,0-3.6-0.5
	C177.7,118.9,179,119,180.4,119z"/>
<path fill="#050505" d="M176.3,119.2c1.2,0.1,2.4,0,3.6,0.5c-1.7,0-3.3,0-5-0.5C175.4,119.2,175.8,119.2,176.3,119.2z"/>
<path fill="#050505" d="M159.5,125.5c-1,0.4-2.1,0.2-3.1,0c0.3,0,0.7-0.1,1-0.1C158.1,125.5,158.8,125.5,159.5,125.5z"/>
<path fill="#050505" d="M160.8,132.2c-3.8-0.1-7.7-0.4-11.6-0.2c0.1-0.1,0.1-0.2,0.1-0.2c3.8,0,7.7-0.2,11.5,0.2
	c0.4,0,0.9,0.2,1.3,0.2C161.7,132.2,161.3,132.2,160.8,132.2z"/>
<path fill="#050505" d="M150.5,138.5c-2.5,0-4.9,0-7.4,0c0-0.1,0-0.3,0-0.4c2.9-0.1,5.8-0.2,8.7,0.4
	C151.4,138.4,150.9,138.5,150.5,138.5z"/>
<path fill="#050505" d="M135.1,144c-1.1,0.4-2.2,0.2-3.4,0c0.2,0,0.4-0.1,0.6-0.1C133.2,143.9,134.1,143.9,135.1,144z"/>
<path fill="#050505" d="M137.7,138.4c0.9-0.4,1.9-0.2,2.9-0.1c-0.6,0-1.1,0.1-1.7,0.1C138.5,138.5,138.1,138.5,137.7,138.4z"/>
<path fill="#050505" d="M131.2,156c0.8,0.6,1.8,0.4,2.7,0.5c-1,0.3-2,0.2-2.9,0.2c-1.3-0.2-2.6-0.3-3.8-0.4c-0.3,0-0.6,0.1-0.8-0.1
	C128,155.9,129.6,156,131.2,156z"/>
<path fill="#050505" d="M126.4,156.2c1.5,0.1,3.1-0.1,4.6,0.5c-0.2,0-0.4,0-0.7,0c-1.6-0.1-3.3-0.1-4.9-0.5
	C125.8,156.2,126.1,156.2,126.4,156.2z"/>
<path fill="#050505" d="M120.5,168.5c-0.7,0-1.4-0.1-2-0.5c0.3,0,0.6,0,0.9,0c0.8,0,1.7-0.6,2.2,0.5
	C121.2,168.4,120.9,168.4,120.5,168.5z"/>
<path fill="#050505" d="M121.6,168.4c-0.7-0.5-1.4-0.4-2.2-0.5c0.7-0.2,1.5-0.2,2.2-0.2c0.6,0.5,1.3,0.5,1.9,0.5
	C122.9,168.4,122.3,168.4,121.6,168.4z"/>
<path fill="#050505" d="M111.6,174c0.5,0.5,1.1,0.5,1.7,0.5c-0.6,0.2-1.3,0.2-2,0.2c-0.8-0.5-1.8,0.1-2.7-0.5
	C109.6,173.9,110.6,173.9,111.6,174z"/>
<path fill="#050505" d="M108.6,174.2c0.9,0,1.8,0,2.7,0.5c-0.2,0-0.4,0-0.7,0c-1,0-2,0-2.9-0.5C108,174.2,108.3,174.2,108.6,174.2z"
	/>
<path fill="#050505" d="M390.5,127.4c1.3,0.2,2.6,0.3,3.9,0.5c-28.2,1.6-55.6,7.6-82.9,14.7c-15.2,4-30.4,8.2-45.7,11.9
	c-28.6,7-57.4,12.4-86.6,16.5c-18.3,2.6-36.6,5.3-54.9,7.5c-6,0.7-12,1.5-18,1.9c-0.6,0-1.2,0-1.7-0.5c6.4-0.6,12.9-1.2,19.3-2
	c13.9-1.7,27.7-3.7,41.6-5.6c19-2.7,38-5.4,56.8-9c25.5-4.8,50.7-11,75.7-17.8c18.5-5,37-9.8,55.8-13.4c11.4-2.1,22.8-3.8,34.3-4.7
	C389,127.4,389.8,127.4,390.5,127.4z"/>
<path fill="#050505" d="M394.1,127.1c0.4,0,0.8,0.1,1.1,0.1c0,0.1,0,0.2,0,0.3c-0.8-0.1-1.7-0.2-2.5-0.4
	C393.2,127.2,393.7,127.1,394.1,127.1z"/>
<path fill="#050505" d="M398.2,126.9c0.6,0,1.3,0,1.9,0c0,0.1,0,0.2,0,0.3c-0.8-0.1-1.6,0-2.3-0.3
	C397.9,126.9,398.1,126.9,398.2,126.9z"/>
<path fill="#050505" d="M366.1,135.5c0.5,0.1,0.9,0.2,1.3,0.5c-5.1,0.8-10.2,1.4-15.3,2.3c-17.1,2.8-33.8,6.9-50.5,11.3
	c-20.4,5.4-40.7,10.9-61.3,15.4c-20.2,4.4-40.6,8.1-61.1,11.1c-22.2,3.2-44.3,6.4-66.5,9c-7.8,0.9-15.6,1.8-23.5,2.1
	c-1.4,0-2.8-0.1-4.1-0.5c22.6-1,44.9-4.5,67.3-7.5c16.9-2.3,33.8-4.7,50.7-7.5c23.3-4,46.3-9,69.2-14.9c16.1-4.2,32.2-8.7,48.4-12.6
	c14.5-3.5,29-6.5,43.8-8.5C364.9,135.6,365.5,135.6,366.1,135.5z"/>
<path fill="#050505" d="M402.9,127.4c-0.3,0-0.5-0.1-0.8-0.1c1.2-0.2,2.4-0.3,3.6,0C404.8,127.4,403.8,127.4,402.9,127.4z"/>
<path fill="#050505" d="M77.1,193.4c-4.7-0.4-9.4-0.2-14.2-0.5c0.6,0,1.1-0.1,1.7-0.1c9.7,0,19.3-0.4,29-1.3
	c10.5-1,20.9-2.3,31.3-3.7c21.8-2.9,43.7-5.7,65.4-9.2c30.3-4.8,60.2-11.6,89.8-19.6c16.9-4.6,33.8-9,50.9-12.5
	c7.3-1.5,14.6-2.8,22-3.8c0.6-0.1,1.2-0.1,1.8-0.2c0.4,0.1,0.9,0.2,1.2,0.5c-7.9,1.1-15.8,2.4-23.6,3.9
	c-15.9,3.1-31.5,7.2-47.1,11.3c-20.6,5.5-41.3,10.8-62.2,15.1c-25.4,5.2-50.9,8.9-76.6,12.3c-12.4,1.6-24.7,3.3-37.1,4.9
	c-10,1.3-20.1,2.3-30.2,2.8C78.5,193.4,77.8,193.4,77.1,193.4z"/>
<path fill="#050505" d="M84.3,187.4c-3,0-6,0-9.1,0c0-0.1,0-0.3,0-0.4c3.2-0.1,6.3-0.2,9.5,0.4C84.5,187.4,84.4,187.4,84.3,187.4z"
	/>
<path fill="#050505" d="M68.1,187.4c0.9-0.3,1.9-0.2,2.9-0.1c-0.4,0-0.8,0.1-1.3,0.1C69.2,187.5,68.7,187.6,68.1,187.4z"/>
<path fill="#050505" d="M78,198.9c-0.8-0.1-1.6,0.1-2.2-0.5c5.6-0.5,11.2-1,16.8-1.6c12.6-1.3,25.2-3,37.7-4.7
	c18.2-2.4,36.5-4.8,54.6-7.7c25.5-4.1,50.8-9.5,75.8-16c19.2-5,38.3-10.4,57.7-14.5c3.6-0.8,7.3-1.4,10.9-2.1
	c0.2,0.2,0.4,0.3,0.5,0.5c-4.9,1-9.7,1.9-14.6,3c-15.6,3.4-30.9,7.5-46.3,11.6c-33.5,9-67.3,16.1-101.7,20.9c-24,3.4-48,6.7-72,9.5
	C89.6,198,83.8,198.7,78,198.9z"/>
<path fill="#050505" d="M63.6,193.6c2.6-0.4,5.1-0.4,7.7,0C68.7,193.7,66.1,193.7,63.6,193.6z"/>
<path fill="#050505" d="M62.9,205.4c-1.3-0.1-2.6,0-3.9-0.5c23-1,45.7-4.4,68.5-7.3c19.6-2.5,39.2-5.1,58.8-8.4
	c25.4-4.3,50.5-9.9,75.4-16.5c15.6-4.2,31.3-8.4,47.1-11.8c3.9-0.8,7.7-1.7,11.6-2.3c0.2,0.2,0.4,0.3,0.5,0.5
	c-8.6,1.7-17.2,3.5-25.8,5.6c-15.2,3.7-30.2,7.8-45.3,11.7c-27.7,7.1-55.7,12.7-83.9,16.8c-24.1,3.5-48.2,6.5-72.4,9.5
	c-9.2,1.1-18.4,2-27.6,2.7C65,205.4,63.9,205.4,62.9,205.4z"/>
<path fill="#050505" d="M57.6,205.6c-3.1,0-6.2-0.4-9.4-0.4c3.3-0.1,6.6-0.3,9.9,0.1c0.2,0,0.4,0.2,0.6,0.3
	C58.4,205.6,58,205.6,57.6,205.6z"/>
<path fill="#050505" d="M250.5,62.9c1.1,0.5,2.2,0.5,3.4,0.5c-1.1,0.3-2.2,0.2-3.4,0.2c-1.3-0.3-2.6-0.2-3.9-0.5
	C247.9,62.8,249.2,62.9,250.5,62.9z"/>
<path fill="#050505" d="M246.6,63.1c1.3,0.1,2.7,0,3.9,0.5c-0.2,0-0.4,0-0.7,0c-1.9-0.2-3.9-0.1-5.8-0.5
	C244.9,63.1,245.7,63.1,246.6,63.1z"/>
<path fill="#050505" d="M243.3,57.6c2.8-0.4,5.6-0.4,8.4,0C248.9,57.7,246.1,57.7,243.3,57.6z"/>
<path fill="#050505" d="M267.5,50.1c0.8,0.4,1.8,0.5,2.7,0.5c-1,0.3-2.1,0.2-3.1,0.2H267c-1.3-0.3-2.6-0.1-3.8-0.5
	C264.6,50.1,266,50.2,267.5,50.1z"/>
<path fill="#050505" d="M261.6,51.1c-1.3,0-2.5,0-3.8,0c0-0.2,0-0.3,0-0.5c1.9,0,3.7,0.1,5.6,0.4C262.8,51.1,262.2,51.1,261.6,51.1z
	"/>
<path fill="#050505" d="M257.7,44.9c2-0.5,4-0.2,6-0.2c1.5,0,3-0.2,4.5,0.2C264.7,45,261.2,45.1,257.7,44.9z"/>
<path fill="#050505" d="M263.1,50.4c1.3,0.1,2.6,0,3.8,0.5c-1.7,0-3.5-0.1-5.2-0.5C262.2,50.4,262.7,50.4,263.1,50.4z"/>
<path fill="#050505" d="M276.9,38.4c-0.9,0-1.7,0-2.6,0c1.5-0.2,3-0.5,4.5,0C278.2,38.4,277.5,38.4,276.9,38.4z"/>
<path fill="#050505" d="M263.4,38.4c1.2-0.4,2.5-0.2,3.8,0c-0.7,0-1.5,0-2.2,0C264.5,38.4,264,38.4,263.4,38.4z"/>
<path fill="#050505" d="M268.7,37.7c-1.3,0.4-2.5,0.2-3.8,0.1c0.4,0,0.8-0.1,1.2-0.1C267,37.6,267.8,37.7,268.7,37.7z"/>
<path fill="#050505" d="M283.8,25.7c2-0.4,4-0.4,6,0C287.8,25.7,285.8,25.7,283.8,25.7z"/>
<path fill="#050505" d="M295.6,25.5c-0.7,0-1.4-0.1-2.1-0.1c0-0.1,0-0.2,0-0.3c1.1,0.1,2.2,0.1,3.2,0.4
	C296.4,25.4,296,25.4,295.6,25.5z"/>
<path fill="#050505" d="M291,19.2c2.8-0.4,5.6-0.4,8.4,0C296.6,19.3,293.8,19.3,291,19.2z"/>
<path fill="#050505" d="M304.5,19c-0.6,0-1.3-0.1-1.9-0.1c0-0.1,0-0.2,0-0.3c0.9,0.2,1.9,0.1,2.8,0.4C305.1,19,304.8,19,304.5,19z"
	/>
<path fill="#050505" d="M298.6,18.4c0.4,0,0.8,0,1.2,0.1v0.1c-2.5,0-5,0-7.6,0v-0.1c0.5,0,1-0.1,1.5-0.1
	C295.4,18.4,297,18.4,298.6,18.4z"/>
<path fill="#050505" d="M119,162.9c-3.3-0.1-6.5-0.4-9.8-0.5c2.4,0,4.9,0,7.3,0C117.4,162.4,118.3,162.3,119,162.9L119,162.9z"/>
<path fill="#050505" d="M272.6,38.1c-0.5,0.3-0.9,0.3-1.5,0.1C271.6,37.9,272,37.9,272.6,38.1z"/>
<ellipse fill="#050505" cx="288.2" cy="25.1" rx="4.8" ry="0.1"/>
</svg>
