<?xml version="1.0" encoding="UTF-8"?>
<svg id="Layer_2" data-name="Layer 2" xmlns="http://www.w3.org/2000/svg" viewBox="0 0 672 215">
  <defs>
    <style>
      .cls-1 {
        fill: #fff;
      }
    </style>
  </defs>
  <g id="Layer_1-2" data-name="Layer 1">
    <g>
      <rect class="cls-1" x=".5" y=".5" width="671" height="214" rx="17.37" ry="17.37"/>
      <path d="m654.13,1c9.3,0,16.87,7.57,16.87,16.87v179.26c0,9.3-7.57,16.87-16.87,16.87H17.87c-9.3,0-16.87-7.57-16.87-16.87V17.87C1,8.57,8.57,1,17.87,1h636.26m0-1H17.87C8,0,0,8,0,17.87v179.26c0,9.87,8,17.87,17.87,17.87h636.26c9.87,0,17.87-8,17.87-17.87V17.87c0-9.87-8-17.87-17.87-17.87h0Z"/>
    </g>
  </g>
</svg>