<?xml version="1.0" encoding="UTF-8"?>
<svg id="Layer_2" data-name="Layer 2" xmlns="http://www.w3.org/2000/svg" viewBox="0 0 195.93 203.32">
  <defs>
    <style>
      .cls-1 {
        fill: #888;
      }
    </style>
  </defs>
  <g id="Layer_1-2" data-name="Layer 1">
    <path class="cls-1" d="m22.21,82.13c-5.41,0-10.17-.05-14.92.02-3.3.04-5.87-1.09-6.94-4.36-1.08-3.28.45-5.68,3.04-7.64,10.76-8.18,21.44-16.46,32.25-24.57,1.97-1.48,2.77-3.01,2.7-5.46-.16-6.05-.11-12.1-.02-18.15.07-4.59,1.5-6.03,6.04-6.12,5.28-.1,10.56.01,15.84-.04,3.52-.04,6.81.22,7.68,5.05,7.74-5.91,14.98-11.43,22.21-16.96,6.75-5.17,9.42-5.18,16.09-.09,28.12,21.49,56.25,42.98,84.37,64.47,1.23.94,2.89,1.67,3.53,2.92,1.02,2.02,2.06,4.47,1.81,6.59-.33,2.73-2.74,4.25-5.65,4.29-5.14.06-10.28.02-16.07.02v5.15c0,35.4,0,70.81,0,106.21,0,8.32-1.56,9.87-9.93,9.87-44.17,0-88.33,0-132.5,0-7.83,0-9.53-1.69-9.53-9.49,0-35.53,0-71.06,0-106.6v-5.1Z"/>
  </g>
</svg>