<?xml version="1.0" encoding="utf-8"?>
<!-- Generator: Adobe Illustrator 25.4.0, SVG Export Plug-In . SVG Version: 6.00 Build 0)  -->
<svg version="1.1" id="Layer_1" xmlns="http://www.w3.org/2000/svg" xmlns:xlink="http://www.w3.org/1999/xlink" x="0px" y="0px"
	 viewBox="0 0 35.4 35.4" style="enable-background:new 0 0 35.4 35.4;" xml:space="preserve">
<style type="text/css">
	.st0{fill-rule:evenodd;clip-rule:evenodd;fill:#F0F0F0;}
</style>
<g id="Layer_2_00000046310068251559504030000001496493800492834226_">
	<g id="Layer_1-2">
		<path class="st0" d="M15.5,23.1c0,0.1-0.1,0.2-0.1,0.3c-1.3,5.1-1.4,6.2-2.8,8.6c-0.6,1.1-1.4,2.2-2.2,3.2
			c-0.1,0.1-0.2,0.3-0.3,0.2S9.9,35.2,9.9,35c-0.2-1.5-0.3-3.1-0.3-4.7c0.1-2,0.3-2.7,3-13.8c0-0.2,0-0.3-0.1-0.5
			c-0.6-1.6-0.7-3.4-0.2-5.1c1.2-3.8,5.4-4.1,6.2-0.9c0.5,1.9-0.8,4.4-1.7,8.1c-0.8,3.1,2.8,5.2,5.9,3c2.8-2.1,4-7,3.7-10.5
			c-0.4-7-8.1-8.5-12.9-6.2C7.9,7,6.7,13.9,9.2,17c0.3,0.4,0.6,0.6,0.5,1c-0.2,0.6-0.3,1.3-0.5,1.9c-0.1,0.4-0.4,0.6-0.8,0.5
			c-0.1,0-0.1,0-0.2-0.1c-0.9-0.4-1.7-1-2.3-1.7C3.8,16,3.1,10.7,6,6.3C9.1,1.4,15-0.6,20.3,0c6.4,0.7,10.4,5.1,11.1,10
			c0.3,2.2,0.1,7.8-3,11.7c-3.6,4.5-9.5,4.8-12.2,2C15.8,23.6,15.6,23.3,15.5,23.1z"/>
	</g>
</g>
</svg>
