<?xml version="1.0" encoding="utf-8"?>
<!-- Generator: Adobe Illustrator 25.4.0, SVG Export Plug-In . SVG Version: 6.00 Build 0)  -->
<svg version="1.1" id="Layer_1" xmlns="http://www.w3.org/2000/svg" xmlns:xlink="http://www.w3.org/1999/xlink" x="0px" y="0px"
	 viewBox="0 0 35.4 35.4" style="enable-background:new 0 0 35.4 35.4;" xml:space="preserve">
<style type="text/css">
	.st0{fill:#F0F0F0;}
</style>
<g id="Layer_2_00000111173308985753771820000000406546767398184342_">
	<g id="Layer_1-2">
		<path class="st0" d="M32.9,14.3c-0.3,0-0.6,0-0.9,0.1c-3.2,0-6.2-1.6-8-4.3v14.5c0,6-4.8,10.8-10.8,10.8S2.4,30.6,2.4,24.6
			s4.8-10.8,10.8-10.8l0,0l0,0c0.2,0,0.5,0,0.7,0v5.4c-0.2,0-0.5-0.1-0.7-0.1c-3,0.1-5.4,2.6-5.3,5.7c0.1,2.8,2.5,5.1,5.3,5.3
			c3,0,5.6-2.4,5.7-5.4L19,0h5.1c0.5,4.5,4.1,8.1,8.7,8.4V14.3"/>
	</g>
</g>
</svg>
