<?xml version="1.0" encoding="utf-8"?>
<!-- Generator: Adobe Illustrator 25.4.0, SVG Export Plug-In . SVG Version: 6.00 Build 0)  -->
<svg version="1.1" id="Layer_1" xmlns="http://www.w3.org/2000/svg" xmlns:xlink="http://www.w3.org/1999/xlink" x="0px" y="0px"
	 viewBox="0 0 35.4 35.4" style="enable-background:new 0 0 35.4 35.4;" xml:space="preserve">
<style type="text/css">
	.st0{fill:#F0F0F0;}
</style>
<g id="Layer_2_00000011005183889840591100000016410428309456948890_">
	<g id="Layer_1-2">
		<path class="st0" d="M35.2,6.6c-1.2,0.5-2.4,0.8-3.5,1c0.6-0.1,1.4-1.2,1.7-1.6c0.5-0.6,0.9-1.3,1.2-2.1c0-0.1,0.1-0.2,0-0.2
			c-0.1,0-0.2,0-0.2,0c-1.3,0.7-2.8,1.3-4.3,1.6c-0.1,0-0.2,0-0.3-0.1c-0.1-0.2-0.2-0.2-0.4-0.4c-0.6-0.6-1.3-1-2.1-1.3
			c-1-0.4-2.1-0.6-3.1-0.5c-1.1,0.1-2.1,0.3-3,0.8s-1.7,1.2-2.4,2c-0.7,0.8-1.2,1.8-1.5,2.9c-0.2,1-0.2,2.1-0.1,3
			c0,0.2,0,0.2-0.2,0.2c-5.8-0.9-10.7-3-14.7-7.4c0-0.2-0.1-0.2-0.2,0c-1.7,2.6-0.8,6.8,1.3,8.8c0.2,0.2,0.6,0.5,0.9,0.7
			c-1-0.1-2-0.3-2.9-0.7c-0.2-0.1-0.2-0.1-0.2,0.2c0,0.2,0,0.6,0,0.8c0.3,2.6,2.1,4.9,4.6,5.9c0.3,0.1,0.7,0.2,0.9,0.2
			c-0.9,0.2-1.8,0.2-2.7,0.1c-0.2,0-0.2,0.1-0.2,0.2c1.2,3.3,3.9,4.3,5.8,4.9c0.2,0,0.5,0,0.8,0.1c0,0,0,0-0.1,0.1
			c-0.6,1.1-2.9,1.8-4,2.1c-1.9,0.7-4,1-6,0.7c-0.3-0.1-0.4,0-0.5,0s0,0.2,0.1,0.2c0.4,0.2,0.8,0.5,1.2,0.7c1.2,0.7,2.6,1.2,4,1.6
			c7.2,2,15.4,0.5,20.8-4.9c4.3-4.2,5.8-10,5.8-15.9c0-0.2,0.2-0.3,0.4-0.5c1.1-0.8,2.1-1.8,2.8-3c0.2-0.2,0.3-0.4,0.3-0.6l0,0
			C35.4,6.5,35.4,6.6,35.2,6.6z"/>
	</g>
</g>
</svg>
