<?xml version="1.0" encoding="utf-8"?>
<!-- Generator: Adobe Illustrator 25.4.0, SVG Export Plug-In . SVG Version: 6.00 Build 0)  -->
<svg version="1.1" id="Layer_1" xmlns="http://www.w3.org/2000/svg" xmlns:xlink="http://www.w3.org/1999/xlink" x="0px" y="0px"
	 viewBox="0 0 35.4 35.4" style="enable-background:new 0 0 35.4 35.4;" xml:space="preserve">
<style type="text/css">
	.st0{fill:#F0F0F0;}
	.st1{fill-rule:evenodd;clip-rule:evenodd;fill:#F0F0F0;}
</style>
<g id="Layer_2_00000130609794721600347100000016429669984160791192_">
	<g id="Layer_1-2">
		<path class="st0" d="M0.1,35.4l2.5-9.5C-2.1,17.5,1,6.8,9.4,2.1s19.1-1.7,23.8,6.8s1.7,19.1-6.8,23.8c-5.2,2.9-11.6,2.9-16.8,0.1
			L0.1,35.4z M10.1,29.3l0.6,0.4c6.7,4,15.5,1.8,19.5-4.9S32,9.3,25.3,5.3S9.8,3.4,5.8,10.2c-2.7,4.5-2.7,10.1,0,14.6l0.4,0.6
			l-1.4,5.3L10.1,29.3z"/>
		<path class="st1" d="M24.4,19.9c-0.7-0.6-1.6-0.8-2.5-0.6c-0.6,0.3-1.1,1.3-1.5,1.8c-0.2,0.3-0.5,0.3-0.8,0.2
			c-2.4-0.9-4.4-2.6-5.7-4.9c-0.2-0.3-0.2-0.7,0.1-0.9c0.5-0.5,0.8-1,1-1.7c0-0.7-0.1-1.4-0.5-2c-0.3-0.9-0.8-1.6-1.4-2.2
			c-0.7-0.3-1.6-0.2-2.2,0.3c-1,0.9-1.6,2.2-1.5,3.5c0,0.4,0,0.7,0.1,1.1c0.2,0.9,0.6,1.7,1.1,2.5c0.3,0.6,0.7,1.1,1.1,1.7
			c1.3,1.8,2.9,3.3,4.8,4.5c0.9,0.6,1.9,1.1,3,1.4c1.1,0.5,2.3,0.7,3.5,0.5c1.4-0.2,2.6-1.1,3.2-2.4c0.2-0.4,0.2-0.8,0.1-1.2
			C26.2,20.8,25.1,20.3,24.4,19.9z"/>
	</g>
</g>
</svg>
