<?xml version="1.0" encoding="utf-8"?>
<!-- Generator: Adobe Illustrator 25.4.0, SVG Export Plug-In . SVG Version: 6.00 Build 0)  -->
<svg version="1.1" id="Layer_1" xmlns="http://www.w3.org/2000/svg" xmlns:xlink="http://www.w3.org/1999/xlink" x="0px" y="0px"
	 viewBox="0 0 35.4 35.4" style="enable-background:new 0 0 35.4 35.4;" xml:space="preserve">
<style type="text/css">
	.st0{fill:#F0F0F0;}
</style>
<g id="Layer_2_00000029034085519883620830000013223712260299755174_">
	<g id="Layer_1-2">
		<path class="st0" d="M35.4,13.1c0-4.3-3.4-7.8-7.8-7.8c0,0,0,0-0.1,0H7.8C3.4,5.3,0,8.8,0,13.1v9.2c0,4.3,3.4,7.8,7.8,7.8h19.9
			c4.3,0,7.8-3.4,7.8-7.7c0,0,0,0,0-0.1V13.1z M23.7,18.4l-8.9,4.4c-0.4,0.2-1.6-0.1-1.6-0.5v-9c0-0.4,1.2-0.7,1.6-0.5l8.6,4.6
			C23.7,17.7,24.1,18.2,23.7,18.4L23.7,18.4z"/>
	</g>
</g>
</svg>
